<svg width="544" height="581" viewBox="0 0 544 581" fill="none" xmlns="http://www.w3.org/2000/svg">
<path d="M474.905 162.772L474.716 162.443L474.493 162.137L472.346 159.179C465.282 149.452 464.984 136.367 471.597 126.329C472.954 124.27 474.13 122.098 475.113 119.837L468.694 117.046L475.113 119.837L479.289 110.233C483.154 101.343 486.224 92.1287 488.462 82.6974L491.02 71.9139C492.41 66.0581 493.112 60.0602 493.112 54.0417V46.3495C493.112 42.6647 492.485 39.0067 491.259 35.5319L490.531 33.47C489.467 30.4549 487.77 27.7024 485.554 25.3978L485.123 24.95L480.077 29.8016L485.123 24.9498C481.174 20.8427 475.722 18.5216 470.024 18.5216C467.476 18.5216 464.949 18.9866 462.567 19.8938L465.053 26.4182L462.567 19.8939L453.444 23.3694L452.986 23.5439L452.557 23.7804L396.321 54.7791L396.104 54.8983L395.897 55.0324C379.573 65.5952 359.691 69.161 340.713 64.9295L339.796 64.725C334.629 63.5729 329.369 62.8853 324.079 62.6705L277.361 60.7733L277.219 60.7675H277.077H247.45H247.167L246.886 60.7903C232.134 61.9824 217.725 55.9151 208.269 44.5293L203.645 38.9618C200.081 34.6702 196.039 30.7991 191.597 27.4235L183.086 20.9551C178.596 17.5427 173.67 14.7458 168.439 12.6388L162.158 10.1091L159.543 16.6022L162.158 10.1091C156.872 7.98003 151.152 7.15338 145.479 7.69893L144.285 7.81375C139.08 8.31438 134.086 10.1284 129.773 13.0857C125.931 15.7208 122.734 19.191 120.422 23.2366L117.652 28.0841L117.428 28.4752L117.257 28.8918C113.205 38.7329 110.429 49.0522 108.996 59.5981L108.015 66.8255L107.951 67.2944V67.7675V84.9123C107.951 87.1944 108.129 89.473 108.484 91.7274C110.179 102.501 105.864 113.342 97.2296 120.005L79.9428 133.345C76.8123 135.76 76.5535 139.333 77.9489 142.069C67.3519 149.955 57.5495 158.904 48.7026 168.798L48.7024 168.798C45.8344 172.006 46.5493 176.014 48.8909 178.461C40.649 186.27 32.91 194.604 25.7236 203.413L27.9974 205.268L25.7236 203.413L18.3592 212.441L18.3591 212.441C12.9687 219.049 21.5342 227.876 28.3014 222.683L33.6033 218.614L28.4397 227.034C21.9122 237.679 16.5166 248.978 12.3408 260.746L12.2363 261.04L12.1584 261.343L7.47646 279.551C5.81117 286.027 12.5608 290.086 17.3939 287.849C16.8029 290.98 16.3142 294.132 15.9289 297.3L15.7073 299.122C13.8895 314.069 14.1803 329.197 16.5713 344.063L19.2146 360.497C20.6053 369.144 33.3446 368.116 33.3446 359.368V347.755C33.3446 337.306 34.6796 326.899 37.3171 316.789C38.1135 313.736 39.0271 310.716 40.0556 307.736C40.0819 308.776 40.1183 309.816 40.165 310.857C40.9494 328.337 44.6077 345.568 50.9932 361.859L52.8095 366.493C59.9391 384.683 69.8409 401.66 82.1633 416.82L113.085 454.865L124.356 446.588L115.177 432.711C107.953 421.788 102.608 409.752 99.3481 397.105C102.252 403.517 105.485 409.786 109.038 415.886C116.494 428.689 125.302 440.656 135.311 451.58L139.437 456.083C159.384 477.853 182.842 496.122 208.835 510.128L226.391 519.588C229.702 521.371 232.94 520.37 234.936 518.21C248.882 531.145 263.825 543.006 279.64 553.678L311.293 575.035L319.778 563.93L288.126 536.643L281.844 530.49C277.456 526.192 273.426 521.543 269.793 516.589L265.902 511.283C262.677 506.885 260.038 502.085 258.054 497.005L257.668 496.017C255.814 491.27 254.627 486.289 254.14 481.216L253.978 479.524C253.443 473.95 253.933 468.325 255.422 462.927C256.455 459.182 257.96 455.582 259.899 452.215L263.429 446.089C268.172 437.856 274.048 430.33 280.886 423.732L285.162 419.606L294.103 413.06C297.804 410.351 301.726 407.958 305.829 405.906L308.42 404.611C312.674 402.484 317.172 400.887 321.814 399.855L324.173 399.331C326.748 398.759 329.377 398.47 332.015 398.47C335.63 398.47 339.226 399.013 342.681 400.08L354.949 403.868L375.87 411.476L390.438 416.979C397.648 419.703 405.154 421.569 412.801 422.539L414.555 422.761C419.681 423.411 424.858 423.563 430.014 423.214L437.223 422.727C442.041 422.402 446.76 421.211 451.156 419.213C456.405 416.827 461.08 413.34 464.864 408.989L466.216 407.434C468.588 404.706 471.649 402.664 475.078 401.521C478.119 400.507 481.002 399.072 483.643 397.256L479.677 391.488L483.643 397.256L484.906 396.388C491.673 391.735 497.041 385.321 500.429 377.84L500.895 376.81C502.247 373.825 503.297 370.712 504.029 367.518L505.362 361.702L498.539 360.138L505.362 361.702C505.972 359.04 506.279 356.319 506.279 353.589C506.279 344.434 502.822 335.616 496.598 328.901L494.229 326.345C492.585 324.074 492.388 321.049 493.744 318.577L534.756 243.804C539.108 235.869 533.513 226.196 524.56 225.917L521.029 224.445C518.585 223.427 516.381 221.911 514.556 219.994L504.575 209.507C499.711 204.397 495.481 198.72 491.977 192.597L474.905 162.772ZM19.7776 211.576C19.7804 211.574 19.7833 211.572 19.7861 211.57L19.7778 211.576L19.7776 211.576Z" stroke="white" stroke-width="14"/>
<path d="M156.903 31.5576H152.722C136.208 31.5576 123.475 46.1019 125.657 62.4703C125.835 63.8059 126.112 65.1266 126.485 66.4214L139.915 113.032L154.343 153.108C154.38 153.211 154.534 153.169 154.514 153.061L137.557 64.7347C136.776 60.6675 137.441 56.4552 139.437 52.8264C144.326 43.937 155.655 40.9417 164.299 46.2529L167.511 48.2266C169.938 49.7178 172.042 51.6794 173.699 53.9959L220.21 119.009C220.304 119.14 220.508 119.03 220.45 118.88L210.001 91.8739C205.356 79.8683 199.321 68.4478 192.02 57.8459L185.027 47.6911C183.668 45.7184 182.123 43.8813 180.411 42.2051L178.571 40.4024C172.784 34.7329 165.005 31.5576 156.903 31.5576Z" fill="white"/>
<path d="M467.34 38.1406H467.685C470.02 38.1406 472.28 38.959 474.073 40.4533C477.338 43.1743 478.522 47.665 477.021 51.6416L446.609 132.234L460.599 85.5987L469.074 56.0475C470.016 52.7594 466.888 49.7607 463.643 50.8424C462.737 51.1441 461.96 51.7415 461.436 52.5385L429.772 100.65C424.968 107.95 414.421 108.388 409.029 101.512C409.027 101.511 409.027 101.508 409.029 101.507L458.969 42.0421C461.046 39.5688 464.11 38.1406 467.34 38.1406Z" fill="white"/>
<path d="M304.708 258.973L285.208 240.592L304.078 260.728C308.184 265.11 313.582 268.067 319.485 269.169L322.057 269.65C325.651 270.321 329.362 269.953 332.754 268.59C336.976 266.893 341.664 266.749 345.982 268.184L362.842 273.785L347.474 266.225C342.532 263.794 336.798 263.543 331.662 265.533C328.172 266.885 324.369 267.215 320.697 266.484L318.37 266.02C313.245 264.999 308.511 262.557 304.708 258.973Z" fill="white" stroke="black"/>
<path d="M458.426 251.159L463.976 222.486L459.571 256.384C459.349 258.095 458.586 259.691 457.394 260.939L448.937 269.793C448.173 270.593 446.826 270.233 446.563 269.158C446.451 268.699 446.577 268.215 446.899 267.869L453.552 260.735C456.042 258.063 457.732 254.745 458.426 251.159Z" fill="white" stroke="black"/>
<ellipse cx="322.34" cy="244.158" rx="4.93783" ry="6.30945" transform="rotate(26.5138 322.34 244.158)" fill="white"/>
<ellipse cx="444.706" cy="239.329" rx="3.54453" ry="4.04305" transform="rotate(-13.7999 444.706 239.329)" fill="white"/>
<path d="M103.937 316.124L162.908 294.457C164.876 293.734 164.547 290.855 162.467 290.595L149.332 288.953C147.186 288.685 146.934 285.673 149.006 285.053L187.336 273.572C189.421 272.948 189.149 269.914 186.987 269.669L147.174 265.165C144.957 264.914 144.754 261.77 146.921 261.236L208.431 246.075C210.268 245.622 210.508 243.108 208.789 242.316L204.991 240.568C203.042 239.671 203.682 236.752 205.827 236.752H234.008H235.505C252.619 236.752 269.557 233.299 285.306 226.602C296.017 222.789 307.302 220.841 318.671 220.841H319.025C319.04 220.841 319.055 220.844 319.069 220.85L329 225.515C330.936 226.425 332.756 224.068 331.386 222.424L308.988 195.547C307.548 193.818 309.617 191.396 311.549 192.549L343.025 211.32C344.535 212.221 346.388 210.876 346 209.161L340.167 183.383C339.716 181.389 342.194 180.083 343.584 181.582L352.506 191.203C352.512 191.21 352.518 191.218 352.524 191.226L354.06 193.547C361.594 204.928 367.622 217.238 371.993 230.168L380.497 252.388C387.431 268.081 395.83 283.085 405.582 297.2L411.677 306.022C411.701 306.056 411.663 306.099 411.626 306.079L399.872 299.835C396.156 297.861 392.013 296.829 387.805 296.829C383.027 296.829 378.344 298.159 374.28 300.671L371.606 302.324C367.514 304.854 363.958 308.161 361.14 312.06L356.456 318.537C353.834 322.163 351.533 326.01 349.578 330.035L339.371 351.05C338.808 352.209 338.337 353.41 337.963 354.643L337.692 355.538C334.021 367.638 340.567 380.476 352.516 384.612L396.671 405.29C404.628 409.016 413.306 410.947 422.092 410.947C433.791 410.947 445.234 407.524 455.011 401.099L459.228 398.328L472.79 390.55C476.171 388.611 479.294 386.253 482.086 383.533L482.426 383.202C486.49 379.242 489.75 374.532 492.024 369.333C493.562 365.818 494.633 362.117 495.211 358.324L495.954 353.438C496.159 352.094 496.261 350.736 496.261 349.377C496.261 342.577 493.695 336.028 489.075 331.039L482.545 323.987C470.86 308.649 460.425 292.398 451.343 275.389L449.901 272.688L445.029 264.74C441.333 258.708 438.1 252.405 435.359 245.884L434.8 244.554C432.617 239.359 430.804 234.015 429.376 228.564C426.793 218.701 425.486 208.547 425.486 198.352V185.199C425.486 184.956 425.819 184.89 425.912 185.114L435.452 208.248C435.957 209.474 437.494 209.878 438.536 209.058L443.705 204.997C445.168 203.848 447.27 205.143 446.901 206.967L444.296 219.827C443.987 221.355 445.467 222.634 446.934 222.106L457.268 218.386C457.293 218.377 457.321 218.378 457.346 218.388L461.312 220.088C466.307 222.229 471.035 224.942 475.404 228.173L482.142 233.157C486.555 236.422 491.674 238.604 497.086 239.526L511.165 241.926C512.326 242.124 513.516 241.804 514.421 241.049C516.758 239.102 516.177 235.368 513.36 234.222L504.923 230.79C503.911 230.378 502.978 229.795 502.164 229.066L496.464 223.959C492.33 220.257 488.798 215.934 485.993 211.146L474.315 191.214L459.502 165.153C448.926 150.931 436.829 137.906 423.426 126.31L419.176 122.633L402.39 109.637C396.584 105.142 390.402 101.152 383.914 97.7125L382.147 96.7758C374.67 92.8123 366.765 89.7164 358.586 87.5483C351.629 85.7045 344.51 84.5412 337.329 84.0748L327.475 83.435C327.292 83.4231 327.181 83.6327 327.294 83.7773L330.844 88.3422C351.274 108.225 369.634 130.13 385.641 153.72L387.629 156.649L402.443 184.081L419.176 223.31L434.813 259.52L439.853 268.03C447.637 281.175 454.411 294.893 460.114 309.065C460.181 309.231 459.954 309.354 459.851 309.208L436.459 275.98L429.144 263.546C417.589 243.902 408.002 223.166 400.522 201.638L389.275 176.126C379.063 157.889 366.937 140.792 353.104 125.124L347.029 118.244C334.961 104.194 319.625 93.3271 302.369 86.5986L285.731 80.1106C285.551 80.0406 285.398 80.2583 285.524 80.4037L289.33 84.7734C290.34 85.9327 289.306 87.7124 287.799 87.4095L248.181 79.4451C246.077 79.0221 244.875 81.7598 246.61 83.0228L268.801 99.1756C270.657 100.526 269.146 103.429 266.975 102.684L237.611 92.6117C235.839 92.0039 234.278 93.9478 235.255 95.5464L248.954 117.962C249.684 119.157 248.992 120.714 247.615 120.971L228.795 124.487C227.307 124.765 226.656 126.53 227.606 127.708L229.515 130.075C230.606 131.429 229.57 133.434 227.835 133.327L203.927 131.856C201.901 131.731 200.999 134.355 202.674 135.502L218.387 146.263C219.791 147.224 219.43 149.387 217.791 149.84L189.361 157.704C187.478 158.225 187.383 160.86 189.224 161.516L198.483 164.811C198.845 164.94 198.877 165.44 198.534 165.613C170.328 179.895 143.754 197.194 119.279 217.208L106.944 227.294C106.414 227.727 106.934 228.561 107.557 228.276L137.601 214.506C139.684 213.551 141.475 216.279 139.772 217.811L79.1789 272.324C77.4988 273.835 79.2224 276.537 81.3011 275.65L114.677 261.416C116.769 260.524 118.49 263.26 116.78 264.76L92.4115 286.124C90.8307 287.51 92.1844 290.084 94.222 289.566L116.794 283.837C118.566 283.387 119.963 285.354 118.955 286.879L101.579 313.143C100.514 314.754 102.124 316.79 103.937 316.124Z" fill="white"/>
<path d="M484.156 330.4L487.171 332.3C490.748 334.555 493.452 337.958 494.841 341.952C496.29 346.117 496.216 350.661 494.633 354.777L493.355 358.1C492.192 361.123 490.521 363.924 488.414 366.382L484.87 370.516C481.697 374.219 477.925 377.362 473.711 379.815L465.818 384.409C463.137 385.969 460.037 386.657 456.948 386.376C454.136 386.12 451.455 385.074 449.214 383.357L443 378.597C440.839 376.942 438.844 375.081 437.044 373.041L434.35 369.988C432.474 367.862 430.922 365.472 429.744 362.894L429.15 361.594C427.82 358.686 427.132 355.526 427.132 352.328C427.132 348.67 428.033 345.068 429.754 341.84L430.002 341.376C431.01 339.485 432.264 337.735 433.73 336.171L434.712 335.123C438.028 331.586 442.105 328.851 446.635 327.126C449.708 325.955 452.944 325.266 456.227 325.084L459.44 324.905C463.848 324.66 468.268 325.05 472.566 326.061L475.383 326.724C478.49 327.455 481.455 328.697 484.156 330.4Z" fill="black"/>
</svg>
